<?xml version="1.0" encoding="UTF-8"?>
<svg width="14px" height="20px" viewBox="0 0 14 20" version="1.1" xmlns="http://www.w3.org/2000/svg" xmlns:xlink="http://www.w3.org/1999/xlink">
    <!-- Generator: Sketch 50.2 (55047) - http://www.bohemiancoding.com/sketch -->
    <title>location-pin-2</title>
    <desc>Created with Sketch.</desc>
    <defs></defs>
    <g id="Page-1" stroke="none" stroke-width="1" fill="none" fill-rule="evenodd">
        <g id="1920" transform="translate(-1193.000000, -41.000000)">
            <g id="Group-3" transform="translate(1188.000000, 37.000000)">
                <g id="location-pin-2" transform="translate(0.000000, 2.000000)">
                    <g id="Frame_-_24px">
                        <rect id="Rectangle-path" x="0.001" y="0.001" width="24" height="24.001"></rect>
                    </g>
                    <g id="Filled_Icons" transform="translate(5.000000, 2.000000)" fill="#FF9A00" fill-rule="nonzero">
                        <path d="M7,0 C3.134,0 0,3.134 0,7 C0,12 7,20 7,20 C7,20 14,12 14,7 C14,3.134 10.866,0 7,0 Z M7,9.5 C5.62,9.5 4.5,8.381 4.5,7 C4.5,5.619 5.62,4.5 7,4.5 C8.381,4.5 9.5,5.619 9.5,7 C9.5,8.381 8.381,9.5 7,9.5 Z" id="Shape"></path>
                    </g>
                </g>
            </g>
        </g>
    </g>
</svg>