<?xml version="1.0" encoding="UTF-8"?>
<svg width="17px" height="19px" viewBox="0 0 17 19" version="1.1" xmlns="http://www.w3.org/2000/svg" xmlns:xlink="http://www.w3.org/1999/xlink">
    <!-- Generator: Sketch 50.2 (55047) - http://www.bohemiancoding.com/sketch -->
    <title>telephone</title>
    <desc>Created with Sketch.</desc>
    <defs></defs>
    <g id="Page-1" stroke="none" stroke-width="1" fill="none" fill-rule="evenodd">
        <g id="1920" transform="translate(-1407.000000, -42.000000)" fill="#FF9A00" fill-rule="nonzero">
            <g id="Group-3" transform="translate(1188.000000, 37.000000)">
                <g id="Group-2" transform="translate(215.000000, 2.000000)">
                    <g id="telephone" transform="translate(12.000000, 12.000000) rotate(-345.000000) translate(-12.000000, -12.000000) translate(3.000000, 3.000000)">
                        <path d="M13.4563163,12.0091444 C14.1597976,12.7089235 14.8632788,13.4087026 15.5630769,14.1121648 C16.1486973,14.7014524 16.1450142,15.4233298 15.5557106,16.0199836 C15.1579306,16.4214358 14.7343686,16.8044728 14.3586875,17.2243403 C13.8098985,17.8394093 13.124833,18.0382939 12.3366394,17.9940973 C11.1911805,17.9314855 10.1378002,17.5521316 9.12125143,17.0586031 C6.86348185,15.9610548 4.93351243,14.439956 3.31661056,12.517405 C2.11958754,11.0957485 1.13250394,9.54518527 0.484269934,7.79942053 C0.167519227,6.95600255 -0.0571527862,6.09048628 0.0128270212,5.17340733 C0.0570247943,4.60990099 0.266964216,4.12742171 0.683159913,3.73333558 C1.13250394,3.30610201 1.55606593,2.86045321 1.99804366,2.42585355 C2.57261471,1.85866416 3.29451167,1.85866416 3.87276587,2.4221705 C4.2300312,2.77206006 4.57993024,3.12931571 4.93351243,3.48288831 C5.27604517,3.82909482 5.61857791,4.16793524 5.96111065,4.51414175 C6.56514688,5.12184466 6.56514688,5.82898987 5.9647938,6.43300974 C5.53386551,6.8676094 5.10662037,7.30220906 4.66832579,7.72575957 C4.55414821,7.83993406 4.54309876,7.93201026 4.60202913,8.07196608 C4.8929978,8.7643791 5.3091935,9.37944811 5.77695326,9.9540036 C6.71983909,11.1104807 7.78426879,12.138051 9.05495477,12.9372725 C9.3275077,13.1066927 9.62952582,13.2319163 9.91312819,13.3866043 C10.056771,13.4676314 10.1562159,13.44185 10.2740767,13.3203094 C10.705005,12.8783437 11.1432995,12.443744 11.5815941,12.0091444 C12.1561652,11.4382719 12.8780621,11.4382719 13.4563163,12.0091444 Z M12.7302134,9 C12.5753613,8.07876231 12.1520991,7.2419128 11.5051617,6.58087201 C10.8203716,5.88115331 9.95320028,5.4416315 9,5.3045007 L9.17894012,4 C10.4108741,4.17580872 11.5292498,4.74542897 12.413627,5.64908579 C13.2498279,6.50703235 13.8004129,7.58649789 14,8.77848101 L12.7302134,9 Z M15.1009251,3.02070751 C16.6299411,4.59318378 17.6328848,6.57333909 18,8.75539258 L16.6034483,9 C16.2893188,7.11691113 15.4226241,5.40465919 14.1017662,4.04961173 C12.7089992,2.62467645 10.9453322,1.72001726 9,1.44046592 L9.19680404,0 C11.4486964,0.322260569 13.4886459,1.36669543 15.1009251,3.02070751 Z" id="Combined-Shape"></path>
                    </g>
                </g>
            </g>
        </g>
    </g>
</svg>